<mxfile host="65bd71144e" modified="2020-11-18T14:07:17.029Z" agent="5.0 (Macintosh; Intel Mac OS X 10_15_7) AppleWebKit/537.36 (KHTML, like Gecko) Code/1.51.1 Chrome/83.0.4103.122 Electron/9.3.3 Safari/537.36" version="13.6.5" etag="CnBA4wfwnsV8fM1QD1KM">
    <diagram id="vj7U6QzIylHiGqkHkWwi" name="Page-1">
        <mxGraphModel dx="949" dy="862" grid="1" gridSize="10" guides="1" tooltips="1" connect="1" arrows="1" fold="1" page="1" pageScale="1" pageWidth="800" pageHeight="400" background="#FFFFFF" math="0" shadow="0">
            <root>
                <mxCell id="0"/>
                <mxCell id="1" parent="0"/>
                <mxCell id="17" value="" style="rounded=0;whiteSpace=wrap;html=1;fontSize=14;fillColor=none;dashed=1;fontStyle=1;strokeColor=#666666;strokeWidth=2;" vertex="1" parent="1">
                    <mxGeometry x="328" y="61" width="390" height="120" as="geometry"/>
                </mxCell>
                <mxCell id="4" value="Action + Dispatch" style="edgeStyle=orthogonalEdgeStyle;orthogonalLoop=1;jettySize=auto;html=1;fontSize=14;labelBackgroundColor=#ffffff;fontColor=#000000;strokeWidth=2;rounded=1;strokeColor=#808080;" edge="1" parent="1" source="2" target="3">
                    <mxGeometry relative="1" as="geometry"/>
                </mxCell>
                <mxCell id="18" style="edgeStyle=orthogonalEdgeStyle;orthogonalLoop=1;jettySize=auto;html=1;fontSize=14;strokeWidth=2;rounded=1;strokeColor=#808080;" edge="1" parent="1" source="2" target="12">
                    <mxGeometry relative="1" as="geometry">
                        <Array as="points">
                            <mxPoint x="98" y="31"/>
                            <mxPoint x="748" y="31"/>
                            <mxPoint x="748" y="371"/>
                            <mxPoint x="408" y="371"/>
                        </Array>
                    </mxGeometry>
                </mxCell>
                <mxCell id="19" value="useReducer" style="edgeLabel;html=1;align=center;verticalAlign=middle;resizable=0;points=[];fontSize=14;fontStyle=0;labelBackgroundColor=#ffffff;fontColor=#000000;" vertex="1" connectable="0" parent="18">
                    <mxGeometry x="-0.4667" y="2" relative="1" as="geometry">
                        <mxPoint as="offset"/>
                    </mxGeometry>
                </mxCell>
                <mxCell id="2" value="Component" style="shape=ext;double=1;rounded=1;whiteSpace=wrap;html=1;fontSize=14;fillColor=#60a917;strokeColor=#2D7600;fontColor=#ffffff;" vertex="1" parent="1">
                    <mxGeometry x="53" y="81" width="120" height="80" as="geometry"/>
                </mxCell>
                <mxCell id="7" value="Action" style="edgeStyle=orthogonalEdgeStyle;orthogonalLoop=1;jettySize=auto;html=1;fontSize=14;labelBackgroundColor=#ffffff;fontColor=#000000;strokeWidth=2;rounded=1;strokeColor=#808080;" edge="1" parent="1" source="3" target="6">
                    <mxGeometry relative="1" as="geometry"/>
                </mxCell>
                <mxCell id="3" value="ActionCreator" style="shape=ext;double=1;rounded=1;whiteSpace=wrap;html=1;fontSize=14;fillColor=#60a917;strokeColor=#2D7600;fontColor=#ffffff;" vertex="1" parent="1">
                    <mxGeometry x="348" y="81" width="120" height="80" as="geometry"/>
                </mxCell>
                <mxCell id="10" value="Action" style="edgeStyle=orthogonalEdgeStyle;orthogonalLoop=1;jettySize=auto;html=1;fontSize=14;labelBackgroundColor=#ffffff;fontColor=#000000;strokeWidth=2;rounded=1;strokeColor=#808080;" edge="1" parent="1" source="6" target="9">
                    <mxGeometry relative="1" as="geometry"/>
                </mxCell>
                <mxCell id="6" value="Dispatch" style="rounded=1;whiteSpace=wrap;html=1;fontSize=14;fillColor=#f5f5f5;strokeColor=#666666;fontColor=#333333;" vertex="1" parent="1">
                    <mxGeometry x="578" y="91" width="120" height="60" as="geometry"/>
                </mxCell>
                <mxCell id="13" value="State" style="edgeStyle=orthogonalEdgeStyle;orthogonalLoop=1;jettySize=auto;html=1;fontSize=14;labelBackgroundColor=#ffffff;fontColor=#000000;strokeWidth=2;rounded=1;strokeColor=#808080;" edge="1" parent="1" source="9" target="12">
                    <mxGeometry relative="1" as="geometry"/>
                </mxCell>
                <mxCell id="9" value="Reducer" style="shape=ext;double=1;rounded=1;whiteSpace=wrap;html=1;fontSize=14;fillColor=#60a917;strokeColor=#2D7600;fontColor=#ffffff;" vertex="1" parent="1">
                    <mxGeometry x="578" y="261" width="120" height="80" as="geometry"/>
                </mxCell>
                <mxCell id="14" value="Props" style="edgeStyle=orthogonalEdgeStyle;orthogonalLoop=1;jettySize=auto;html=1;fontSize=14;labelBackgroundColor=#ffffff;fontColor=#000000;strokeWidth=2;rounded=1;strokeColor=#808080;" edge="1" parent="1" source="21" target="2">
                    <mxGeometry x="0.02" relative="1" as="geometry">
                        <mxPoint as="offset"/>
                    </mxGeometry>
                </mxCell>
                <mxCell id="22" value="Props" style="edgeStyle=orthogonalEdgeStyle;rounded=1;orthogonalLoop=1;jettySize=auto;html=1;labelBackgroundColor=#ffffff;strokeColor=#808080;strokeWidth=2;fontSize=14;fontColor=#000000;" edge="1" parent="1" source="12" target="21">
                    <mxGeometry relative="1" as="geometry"/>
                </mxCell>
                <mxCell id="12" value="App.tsx" style="shape=ext;double=1;rounded=1;whiteSpace=wrap;html=1;fontSize=14;fillColor=#d80073;strokeColor=#A50040;fontColor=#ffffff;" vertex="1" parent="1">
                    <mxGeometry x="348" y="261" width="120" height="80" as="geometry"/>
                </mxCell>
                <mxCell id="21" value="Context" style="shape=ext;double=1;rounded=1;whiteSpace=wrap;html=1;fontSize=14;fillColor=#1ba1e2;strokeColor=#006EAF;fontColor=#ffffff;" vertex="1" parent="1">
                    <mxGeometry x="53" y="261" width="120" height="80" as="geometry"/>
                </mxCell>
            </root>
        </mxGraphModel>
    </diagram>
</mxfile>
